<?xml version="1.0" encoding="UTF-8"?>
<svg id="Layer_2" data-name="Layer 2" xmlns="http://www.w3.org/2000/svg" viewBox="0 0 3674.27 2162.27">
  <defs>
    <style>
      .cls-1 {
        fill: #989898;
      }
    </style>
  </defs>
  <g id="Layer_1-2" data-name="Layer 1">
    <g>
      <path class="cls-1" d="M3672,2.27h0V2160h0v2.27h2.27V2.27h-2.27Z"/>
      <path class="cls-1" d="M3672,2160H0v2.27H2.27s3669.73,0,3669.73,0h2.27v-2.27h-2.27Z"/>
      <path class="cls-1" d="M0,2.27H1.14s-1.14,0-1.14,0V2160H0v2.27H2.27V2.27H0Z"/>
      <path class="cls-1" d="M72,2.27h1.14s-1.14,0-1.14,0V2160h0v2.27h2.27V2.27h-2.27Z"/>
      <path class="cls-1" d="M216,2.27h1.14s-1.14,0-1.14,0V2160h0v2.27h2.27V2.27h-2.27Z"/>
      <path class="cls-1" d="M144,2.27h1.14s-1.14,0-1.14,0V2160h0v2.27h2.27V2.27h-2.27Z"/>
      <path class="cls-1" d="M288,2.27h1.14s-1.14,0-1.14,0V2160h0v2.27h2.27V2.27h-2.27Z"/>
      <path class="cls-1" d="M360,2.27h1.14s-1.14,0-1.14,0V2160h0v2.27h2.27V2.27h-2.27Z"/>
      <path class="cls-1" d="M432,2.27h1.14s-1.14,0-1.14,0V2160h0v2.27h2.27V2.27h-2.27Z"/>
      <path class="cls-1" d="M504,2.27h1.14s-1.14,0-1.14,0V2160h0v2.27h2.27V2.27h-2.27Z"/>
      <path class="cls-1" d="M576,2.27h1.14s-1.14,0-1.14,0V2160h0v2.27h2.27V2.27h-2.27Z"/>
      <path class="cls-1" d="M648,2.27h.99s-.99,0-.99,0V2160h0v2.27h2.27V2.27h-2.27Z"/>
      <path class="cls-1" d="M720,2.27h0V2160h0v2.27h2.27V2.27h-2.27Z"/>
      <path class="cls-1" d="M3672,0H0V2.27H2.27s3669.73,0,3669.73,0h2.27V0h-2.27Z"/>
      <path class="cls-1" d="M3672,72H0v2.27H2.27s3669.73,0,3669.73,0h2.27v-2.27h-2.27Z"/>
      <path class="cls-1" d="M3672,144H0v2.27H2.27s3669.73,0,3669.73,0h2.27v-2.27h-2.27Z"/>
      <path class="cls-1" d="M3672,216H0v2.27H2.27s3669.73,0,3669.73,0h2.27v-2.27h-2.27Z"/>
      <path class="cls-1" d="M3672,288H0v2.27H2.27s3669.73,0,3669.73,0h2.27v-2.27h-2.27Z"/>
      <path class="cls-1" d="M3672,360H0v2.27H2.27s3669.73,0,3669.73,0h2.27v-2.27h-2.27Z"/>
      <path class="cls-1" d="M3672,432H0v2.27H2.27s3669.73,0,3669.73,0h2.27v-2.27h-2.27Z"/>
      <path class="cls-1" d="M3672,504H0v2.27H2.27s3669.73,0,3669.73,0h2.27v-2.27h-2.27Z"/>
      <path class="cls-1" d="M3672,576H0v2.27H2.27s3669.73,0,3669.73,0h2.27v-2.27h-2.27Z"/>
      <path class="cls-1" d="M792,2.27h0V2160h0v2.27h2.27V2.27h-2.27Z"/>
      <path class="cls-1" d="M864,2.27h0V2160h0v2.27h2.27V2.27h-2.27Z"/>
      <path class="cls-1" d="M1008,2.27h0V2160h0v2.27h2.27V2.27h-2.27Z"/>
      <path class="cls-1" d="M936,2.27h0V2160h0v2.27h2.27V2.27h-2.27Z"/>
      <path class="cls-1" d="M1080,2.27h0V2160h0v2.27h2.27V2.27h-2.27Z"/>
      <path class="cls-1" d="M1152,2.27h0V2160h0v2.27h2.27V2.27h-2.27Z"/>
      <path class="cls-1" d="M1224,2.27h0V2160h0v2.27h2.27V2.27h-2.27Z"/>
      <path class="cls-1" d="M1296,2.27h0V2160h0v2.27h2.27V2.27h-2.27Z"/>
      <path class="cls-1" d="M1368,2.27h0V2160h0v2.27h2.27V2.27h-2.27Z"/>
      <path class="cls-1" d="M1440,2.27h0V2160h0v2.27h2.27V2.27h-2.27Z"/>
      <path class="cls-1" d="M1512,2.27h0V2160h0v2.27h2.27V2.27h-2.27Z"/>
      <path class="cls-1" d="M1584,2.27h0V2160h0v2.27h2.27V2.27h-2.27Z"/>
      <path class="cls-1" d="M1656,2.27h0V2160h0v2.27h2.27V2.27h-2.27Z"/>
      <path class="cls-1" d="M1800,2.27h0V2160h0v2.27h2.27V2.27h-2.27Z"/>
      <path class="cls-1" d="M1728,2.27h0V2160h0v2.27h2.27V2.27h-2.27Z"/>
      <path class="cls-1" d="M1872,2.27h0V2160h0v2.27h2.27V2.27h-2.27Z"/>
      <path class="cls-1" d="M1944,2.27h0V2160h0v2.27h2.27V2.27h-2.27Z"/>
      <path class="cls-1" d="M2016,2.27h0V2160h0v2.27h2.27V2.27h-2.27Z"/>
      <path class="cls-1" d="M2088,2.27h0V2160h0v2.27h2.27V2.27h-2.27Z"/>
      <path class="cls-1" d="M2160,2.27h0V2160h0v2.27h2.27V2.27h-2.27Z"/>
      <path class="cls-1" d="M2232,2.27h0V2160h0v2.27h2.27V2.27h-2.27Z"/>
      <path class="cls-1" d="M2304,2.27h0V2160h0v2.27h2.27V2.27h-2.27Z"/>
      <path class="cls-1" d="M2376,2.27h0V2160h0v2.27h2.27V2.27h-2.27Z"/>
      <path class="cls-1" d="M2448,2.27h0V2160h0v2.27h2.27V2.27h-2.27Z"/>
      <path class="cls-1" d="M2592,2.27h0V2160h0v2.27h2.27V2.27h-2.27Z"/>
      <path class="cls-1" d="M2520,2.27h0V2160h0v2.27h2.27V2.27h-2.27Z"/>
      <path class="cls-1" d="M2664,2.27h0V2160h0v2.27h2.27V2.27h-2.27Z"/>
      <path class="cls-1" d="M2736,2.27h0V2160h0v2.27h2.27V2.27h-2.27Z"/>
      <path class="cls-1" d="M2808,2.27h0V2160h0v2.27h2.27V2.27h-2.27Z"/>
      <path class="cls-1" d="M2880,2.27h0V2160h0v2.27h2.27V2.27h-2.27Z"/>
      <path class="cls-1" d="M2952,2.27h0V2160h0v2.27h2.27V2.27h-2.27Z"/>
      <path class="cls-1" d="M3024,2.27h0V2160h0v2.27h2.27V2.27h-2.27Z"/>
      <path class="cls-1" d="M3096,2.27h0V2160h0v2.27h2.27V2.27h-2.27Z"/>
      <path class="cls-1" d="M3672,648H0v2.27H2.27s3669.73,0,3669.73,0h2.27v-2.27h-2.27Z"/>
      <path class="cls-1" d="M3672,720H0v2.27H2.27s3669.73,0,3669.73,0h2.27v-2.27h-2.27Z"/>
      <path class="cls-1" d="M3672,792H0v2.27H2.27s3669.73,0,3669.73,0h2.27v-2.27h-2.27Z"/>
      <path class="cls-1" d="M3672,864H0v2.27H2.27s3669.73,0,3669.73,0h2.27v-2.27h-2.27Z"/>
      <path class="cls-1" d="M3672,936H0v2.27H2.27s3669.73,0,3669.73,0h2.27v-2.27h-2.27Z"/>
      <path class="cls-1" d="M3672,1008H0v2.27H2.27s3669.73,0,3669.73,0h2.27v-2.27h-2.27Z"/>
      <path class="cls-1" d="M3672,1080H0v2.27H2.27s3669.73,0,3669.73,0h2.27v-2.27h-2.27Z"/>
      <path class="cls-1" d="M3672,1152H0v2.27H2.27s3669.73,0,3669.73,0h2.27v-2.27h-2.27Z"/>
      <path class="cls-1" d="M3672,1224H0v2.27H2.27s3669.73,0,3669.73,0h2.27v-2.27h-2.27Z"/>
      <path class="cls-1" d="M3672,1296H0v2.27H2.27s3669.73,0,3669.73,0h2.27v-2.27h-2.27Z"/>
      <path class="cls-1" d="M3672,1368H0v2.27H2.27s3669.73,0,3669.73,0h2.27v-2.27h-2.27Z"/>
      <path class="cls-1" d="M3672,1440H0v2.27H2.27s3669.73,0,3669.73,0h2.27v-2.27h-2.27Z"/>
      <path class="cls-1" d="M3672,1512H0v2.27H2.27s3669.73,0,3669.73,0h2.27v-2.27h-2.27Z"/>
      <path class="cls-1" d="M3672,1584H0v2.27H2.27s3669.73,0,3669.73,0h2.27v-2.27h-2.27Z"/>
      <path class="cls-1" d="M3672,1656H0v2.27H2.27s3669.73,0,3669.73,0h2.27v-2.27h-2.27Z"/>
      <path class="cls-1" d="M3672,1728H0v2.27H2.27s3669.73,0,3669.73,0h2.27v-2.27h-2.27Z"/>
      <path class="cls-1" d="M3672,1800H0v2.27H2.27s3669.73,0,3669.73,0h2.27v-2.27h-2.27Z"/>
      <path class="cls-1" d="M3672,1872H0v2.27H2.27s3669.73,0,3669.73,0h2.27v-2.27h-2.27Z"/>
      <path class="cls-1" d="M3672,1944H0v2.27H2.27s3669.73,0,3669.73,0h2.27v-2.27h-2.27Z"/>
      <path class="cls-1" d="M3672,2016H0v2.27H3674.27v-2.27h-2.27Z"/>
      <path class="cls-1" d="M3672,2088H0v2.27H2.27s3669.73,0,3669.73,0h2.27v-2.27h-2.27Z"/>
      <path class="cls-1" d="M3168,2.27h0V2160h0v2.27h2.27V2.27h-2.27Z"/>
      <path class="cls-1" d="M3240,2.27h0V2160h0v2.27h2.27V2.27h-2.27Z"/>
      <path class="cls-1" d="M3312,2.27h0V2160h0v2.27h2.27V2.27h-2.27Z"/>
      <path class="cls-1" d="M3384,2.27h0V2160h0v2.27h2.27V2.27h-2.27Z"/>
      <path class="cls-1" d="M3456,2.27h0V2160h0v2.27h2.27V2.27h-2.27Z"/>
      <path class="cls-1" d="M3528,2.27h0V2160h0v2.27h2.27V2.27h-2.27Z"/>
      <path class="cls-1" d="M3600,2.27h0V2160h0v2.27h2.27V2.27h-2.27Z"/>
    </g>
  </g>
</svg>