<?xml version="1.0" encoding="UTF-8"?>
<svg id="Layer_2" data-name="Layer 2" xmlns="http://www.w3.org/2000/svg" viewBox="0 0 3202.76 3304.93">
  <defs>
    <style>
      .cls-1 {
        fill-rule: evenodd;
      }
    </style>
  </defs>
  <g id="Layer_1-2" data-name="Layer 1">
    <g>
      <g>
        <path class="cls-1" d="M1809.77,2076H403.38c-32.27,0-59.16-26.9-59.16-59.18s26.9-59.15,59.16-59.15H1809.77c32.28,0,59.18,26.9,59.18,59.18s-26.9,59.15-59.18,59.15h0Zm172.12-177.47c-32.28,0-59.18-26.9-59.18-59.18V403.37c0-32.27,26.9-59.16,59.18-59.16s59.15,26.9,59.15,59.16V1839.35c0,32.28-26.9,59.18-59.15,59.18h0Zm-1750.61,0c-32.27,0-59.16-26.9-59.16-59.18V403.37c0-32.27,26.9-59.16,59.16-59.16s59.16,26.9,59.16,59.16V1839.35c-2.69,32.28-26.9,59.18-59.16,59.18h0ZM1809.77,287.74H403.38c-32.27,0-59.16-26.88-59.16-59.16s26.9-59.16,59.16-59.16H1809.77c32.28,0,59.18,26.9,59.18,59.16s-26.9,59.16-59.18,59.16Z"/>
        <path class="cls-1" d="M344.22,462.53H118.33C53.79,462.53,0,408.75,0,344.21V118.33C.01,53.78,53.79,0,118.33,0h225.9c64.53,0,115.63,53.78,115.63,118.33v225.88c0,64.55-51.1,118.33-115.63,118.33h0ZM118.33,115.63c-2.68,0-2.68,2.69,0,0l-2.69,228.57,228.57,2.69,2.69-228.57-228.57-2.69Z"/>
        <path class="cls-1" d="M2094.83,462.53h-225.88c-64.53,0-118.33-53.78-118.33-118.33V118.33c2.68-64.55,53.79-118.33,118.33-118.33h225.88c64.53,0,118.33,53.78,118.33,118.33v225.88c0,64.55-53.79,118.33-118.33,118.33h0Zm-225.88-346.9s0,2.69,0,0l-2.71,228.57,228.59,2.69,2.68-228.57-228.56-2.69Z"/>
        <path class="cls-1" d="M344.22,2242.73H118.33c-64.53,0-118.33-53.79-118.33-118.33v-225.88c0-64.53,53.78-118.33,118.33-118.33h225.9c64.53,0,118.33,53.76,118.33,118.33v225.88c-2.69,67.21-53.79,118.33-118.33,118.33h0Zm-225.9-344.21q-2.68,0,0,0l-2.68,225.88,228.57,2.68,2.69-228.56H118.33Z"/>
        <path class="cls-1" d="M2094.83,2242.73h-225.88c-64.53,0-118.33-53.79-118.33-118.33v-225.88c0-64.53,53.79-118.33,118.33-118.33h225.88c64.53,0,118.33,53.76,118.33,118.33v225.88c0,67.21-53.79,118.33-118.33,118.33h0Zm-225.88-344.21h0v225.88l228.56,2.68,2.71-228.56h-231.27Z"/>
      </g>
      <path class="cls-1" d="M2799.37,3135.52H1392.97c-32.27,0-59.16-26.9-59.16-59.15s26.9-59.18,59.16-59.18h1406.4c32.28,0,59.18,26.9,59.18,59.18,0,34.93-26.9,59.15-59.18,59.15h0Zm172.12-177.48c-32.28,0-59.18-26.9-59.18-59.18l.03-1433.29c0-32.28,26.87-59.16,59.15-59.16s59.15,26.88,59.15,59.16v1435.99c0,32.25-26.9,56.47-59.15,56.47h0Zm-1750.61,0c-32.28,0-59.16-26.9-59.16-59.18v-882.04c0-32.25,26.88-59.15,59.16-59.15s59.15,26.9,59.15,59.15v884.75c-2.69,32.25-29.57,56.47-59.15,56.47h0Zm1578.5-1608.1h-817.48c-32.28,0-59.18-26.9-59.18-59.16s26.9-59.16,59.18-59.16h817.48c32.28,0,59.18,26.9,59.18,59.16s-26.9,59.16-59.18,59.16Z"/>
      <path class="cls-1" d="M3084.43,1522.05h-225.88c-64.53,0-118.33-53.78-118.33-118.33v-225.88c0-64.53,53.77-118.33,118.33-118.33h225.88c64.53,0,118.33,53.78,118.33,118.33v225.88c0,64.55-53.79,118.33-118.33,118.33h0Zm-225.88-344.21h0l-2.71,228.57,228.59,2.69,2.68-228.57-228.56-2.69Z"/>
      <path class="cls-1" d="M1333.81,3304.93h-225.88c-64.53,0-118.31-53.76-118.31-118.33v-225.88c0-64.53,53.78-118.33,118.31-118.33h225.88c64.55,0,118.33,53.79,118.33,118.33v225.88c-2.69,64.56-53.78,118.33-118.33,118.33h0Zm-225.88-346.89c-2.68,0-2.68,2.68,0,0l-2.68,228.56,228.56,2.71,2.69-228.59-228.57-2.68Z"/>
      <path class="cls-1" d="M3084.43,3304.93h-225.88c-64.53,0-118.33-53.76-118.33-118.33v-225.88c0-64.53,53.77-118.33,118.33-118.33h225.88c64.53,0,118.33,53.79,118.33,118.33v225.88c0,64.56-53.79,118.33-118.33,118.33h0Zm-225.88-346.89s0,2.68,0,0l-2.71,228.56,228.59,2.71,2.68-228.59-228.56-2.68Z"/>
    </g>
  </g>
</svg>